<svg width="1142" height="358" xmlns="http://www.w3.org/2000/svg" xmlns:xlink="http://www.w3.org/1999/xlink" xml:space="preserve" overflow="hidden"><defs><clipPath id="clip0"><rect x="46" y="188" width="1142" height="358"/></clipPath><clipPath id="clip1"><rect x="47" y="188" width="1141" height="358"/></clipPath><clipPath id="clip2"><rect x="47" y="188" width="1141" height="358"/></clipPath><clipPath id="clip3"><rect x="47" y="188" width="1141" height="358"/></clipPath><clipPath id="clip4"><rect x="47" y="188" width="1141" height="358"/></clipPath><clipPath id="clip5"><rect x="272" y="221" width="104" height="245"/></clipPath><clipPath id="clip6"><rect x="48" y="312" width="226" height="164"/></clipPath><clipPath id="clip7"><rect x="48" y="352" width="226" height="164"/></clipPath></defs><g clip-path="url(#clip0)" transform="translate(-46 -188)"><g clip-path="url(#clip1)"><g clip-path="url(#clip2)"><g clip-path="url(#clip3)"><g clip-path="url(#clip4)"><path d="M237.294 245.341 953.958 245.341 953.958 294.355 237.294 294.355Z" fill="#333F50" fill-rule="evenodd" fill-opacity="1" transform="matrix(1.00293 0 0 1 34.9514 18.6107)"/><path d="M237.294 294.355 339.675 294.355 339.675 354.903 237.294 354.903Z" fill="#FFFFFF" fill-rule="evenodd" fill-opacity="1" transform="matrix(1.00293 0 0 1 34.9514 18.6107)"/><path d="M339.675 294.355 442.055 294.355 442.055 354.903 339.675 354.903Z" fill="#FFFFFF" fill-rule="evenodd" fill-opacity="1" transform="matrix(1.00293 0 0 1 34.9514 18.6107)"/><path d="M442.055 294.355 544.436 294.355 544.436 354.903 442.055 354.903Z" fill="#FFFFFF" fill-rule="evenodd" fill-opacity="1" transform="matrix(1.00293 0 0 1 34.9514 18.6107)"/><path d="M544.436 294.355 646.816 294.355 646.816 354.903 544.436 354.903Z" fill="#FFFFFF" fill-rule="evenodd" fill-opacity="1" transform="matrix(1.00293 0 0 1 34.9514 18.6107)"/><path d="M646.816 294.355 749.197 294.355 749.197 354.903 646.816 354.903Z" fill="#FFFFFF" fill-rule="evenodd" fill-opacity="1" transform="matrix(1.00293 0 0 1 34.9514 18.6107)"/><path d="M749.197 294.355 851.577 294.355 851.577 354.903 749.197 354.903Z" fill="#FFFFFF" fill-rule="evenodd" fill-opacity="1" transform="matrix(1.00293 0 0 1 34.9514 18.6107)"/><path d="M851.577 294.355 953.958 294.355 953.958 354.903 851.577 354.903Z" fill="#FFFFFF" fill-rule="evenodd" fill-opacity="1" transform="matrix(1.00293 0 0 1 34.9514 18.6107)"/><path d="M13.3977 354.903 237.294 354.903 237.294 395.276 13.3977 395.276Z" fill="#F2F2F2" fill-rule="evenodd" fill-opacity="1" transform="matrix(1.00293 0 0 1 34.9514 18.6107)"/><path d="M237.294 354.903 339.675 354.903 339.675 395.276 237.294 395.276Z" fill="#F2F2F2" fill-rule="evenodd" fill-opacity="1" transform="matrix(1.00293 0 0 1 34.9514 18.6107)"/><path d="M339.675 354.903 442.055 354.903 442.055 395.276 339.675 395.276Z" fill="#F2F2F2" fill-rule="evenodd" fill-opacity="1" transform="matrix(1.00293 0 0 1 34.9514 18.6107)"/><path d="M442.055 354.903 544.436 354.903 544.436 395.276 442.055 395.276Z" fill="#F2F2F2" fill-rule="evenodd" fill-opacity="1" transform="matrix(1.00293 0 0 1 34.9514 18.6107)"/><path d="M544.436 354.903 646.816 354.903 646.816 395.276 544.436 395.276Z" fill="#F2F2F2" fill-rule="evenodd" fill-opacity="1" transform="matrix(1.00293 0 0 1 34.9514 18.6107)"/><path d="M646.816 354.903 749.197 354.903 749.197 395.276 646.816 395.276Z" fill="#F2F2F2" fill-rule="evenodd" fill-opacity="1" transform="matrix(1.00293 0 0 1 34.9514 18.6107)"/><path d="M749.197 354.903 851.577 354.903 851.577 395.276 749.197 395.276Z" fill="#F2F2F2" fill-rule="evenodd" fill-opacity="1" transform="matrix(1.00293 0 0 1 34.9514 18.6107)"/><path d="M851.577 354.903 953.958 354.903 953.958 395.276 851.577 395.276Z" fill="#F2F2F2" fill-rule="evenodd" fill-opacity="1" transform="matrix(1.00293 0 0 1 34.9514 18.6107)"/><path d="M13.3977 395.276 237.294 395.276 237.294 435.65 13.3977 435.65Z" fill="#FFFFFF" fill-rule="evenodd" fill-opacity="1" transform="matrix(1.00293 0 0 1 34.9514 18.6107)"/><path d="M237.294 395.276 339.675 395.276 339.675 435.65 237.294 435.65Z" fill="#FFFFFF" fill-rule="evenodd" fill-opacity="1" transform="matrix(1.00293 0 0 1 34.9514 18.6107)"/><path d="M339.675 395.276 442.055 395.276 442.055 435.65 339.675 435.65Z" fill="#FFFFFF" fill-rule="evenodd" fill-opacity="1" transform="matrix(1.00293 0 0 1 34.9514 18.6107)"/><path d="M442.055 395.276 544.436 395.276 544.436 435.65 442.055 435.65Z" fill="#FFFFFF" fill-rule="evenodd" fill-opacity="1" transform="matrix(1.00293 0 0 1 34.9514 18.6107)"/><path d="M544.436 395.276 646.816 395.276 646.816 435.65 544.436 435.65Z" fill="#FFFFFF" fill-rule="evenodd" fill-opacity="1" transform="matrix(1.00293 0 0 1 34.9514 18.6107)"/><path d="M646.816 395.276 749.197 395.276 749.197 435.65 646.816 435.65Z" fill="#FFFFFF" fill-rule="evenodd" fill-opacity="1" transform="matrix(1.00293 0 0 1 34.9514 18.6107)"/><path d="M749.197 395.276 851.577 395.276 851.577 435.65 749.197 435.65Z" fill="#FFFFFF" fill-rule="evenodd" fill-opacity="1" transform="matrix(1.00293 0 0 1 34.9514 18.6107)"/><path d="M851.577 395.276 953.958 395.276 953.958 435.65 851.577 435.65Z" fill="#FFFFFF" fill-rule="evenodd" fill-opacity="1" transform="matrix(1.00293 0 0 1 34.9514 18.6107)"/><path d="M237.294 244.74 237.294 436.251" stroke="#595959" stroke-width="1.20134" stroke-linecap="butt" stroke-linejoin="round" stroke-miterlimit="10" stroke-dasharray="1.20134 1.20134" stroke-opacity="1" fill="none" fill-rule="evenodd" transform="matrix(1.00293 0 0 1 34.9514 18.6107)"/><path d="M339.675 293.755 339.675 436.251" stroke="#595959" stroke-width="1.20134" stroke-linecap="butt" stroke-linejoin="round" stroke-miterlimit="10" stroke-dasharray="1.20134 1.20134" stroke-opacity="1" fill="none" fill-rule="evenodd" transform="matrix(1.00293 0 0 1 34.9514 18.6107)"/><path d="M442.055 293.755 442.055 436.251" stroke="#595959" stroke-width="1.20134" stroke-linecap="butt" stroke-linejoin="round" stroke-miterlimit="10" stroke-dasharray="1.20134 1.20134" stroke-opacity="1" fill="none" fill-rule="evenodd" transform="matrix(1.00293 0 0 1 34.9514 18.6107)"/><path d="M544.436 293.755 544.436 436.251" stroke="#595959" stroke-width="1.20134" stroke-linecap="butt" stroke-linejoin="round" stroke-miterlimit="10" stroke-dasharray="1.20134 1.20134" stroke-opacity="1" fill="none" fill-rule="evenodd" transform="matrix(1.00293 0 0 1 34.9514 18.6107)"/><path d="M646.816 293.755 646.816 436.251" stroke="#595959" stroke-width="1.20134" stroke-linecap="butt" stroke-linejoin="round" stroke-miterlimit="10" stroke-dasharray="1.20134 1.20134" stroke-opacity="1" fill="none" fill-rule="evenodd" transform="matrix(1.00293 0 0 1 34.9514 18.6107)"/><path d="M749.197 293.755 749.197 436.251" stroke="#595959" stroke-width="1.20134" stroke-linecap="butt" stroke-linejoin="round" stroke-miterlimit="10" stroke-dasharray="1.20134 1.20134" stroke-opacity="1" fill="none" fill-rule="evenodd" transform="matrix(1.00293 0 0 1 34.9514 18.6107)"/><path d="M851.577 293.755 851.577 436.251" stroke="#595959" stroke-width="1.20134" stroke-linecap="butt" stroke-linejoin="round" stroke-miterlimit="10" stroke-dasharray="1.20134 1.20134" stroke-opacity="1" fill="none" fill-rule="evenodd" transform="matrix(1.00293 0 0 1 34.9514 18.6107)"/><path d="M236.693 294.355 954.559 294.355" stroke="#595959" stroke-width="1.20134" stroke-linecap="butt" stroke-linejoin="round" stroke-miterlimit="10" stroke-dasharray="1.20134 1.20134" stroke-opacity="1" fill="none" fill-rule="evenodd" transform="matrix(1.00293 0 0 1 34.9514 18.6107)"/><path d="M12.7971 354.903 954.559 354.903" stroke="#595959" stroke-width="1.20134" stroke-linecap="butt" stroke-linejoin="round" stroke-miterlimit="10" stroke-dasharray="1.20134 1.20134" stroke-opacity="1" fill="none" fill-rule="evenodd" transform="matrix(1.00293 0 0 1 34.9514 18.6107)"/><path d="M12.7971 395.276 954.559 395.276" stroke="#595959" stroke-width="1.20134" stroke-linecap="butt" stroke-linejoin="round" stroke-miterlimit="10" stroke-dasharray="1.20134 1.20134" stroke-opacity="1" fill="none" fill-rule="evenodd" transform="matrix(1.00293 0 0 1 34.9514 18.6107)"/><path d="M13.3977 354.302 13.3977 436.251" stroke="#595959" stroke-width="1.20134" stroke-linecap="butt" stroke-linejoin="round" stroke-miterlimit="10" stroke-dasharray="1.20134 1.20134" stroke-opacity="1" fill="none" fill-rule="evenodd" transform="matrix(1.00293 0 0 1 34.9514 18.6107)"/><path d="M953.958 244.74 953.958 436.251" stroke="#595959" stroke-width="1.20134" stroke-linecap="butt" stroke-linejoin="round" stroke-miterlimit="10" stroke-dasharray="1.20134 1.20134" stroke-opacity="1" fill="none" fill-rule="evenodd" transform="matrix(1.00293 0 0 1 34.9514 18.6107)"/><path d="M236.693 245.341 954.559 245.341" stroke="#595959" stroke-width="1.20134" stroke-linecap="butt" stroke-linejoin="round" stroke-miterlimit="10" stroke-dasharray="1.20134 1.20134" stroke-opacity="1" fill="none" fill-rule="evenodd" transform="matrix(1.00293 0 0 1 34.9514 18.6107)"/><path d="M12.7971 435.65 954.559 435.65" stroke="#595959" stroke-width="1.20134" stroke-linecap="butt" stroke-linejoin="round" stroke-miterlimit="10" stroke-dasharray="1.20134 1.20134" stroke-opacity="1" fill="none" fill-rule="evenodd" transform="matrix(1.00293 0 0 1 34.9514 18.6107)"/><text fill="#FFFFFF" fill-opacity="1" font-family="Arial,Arial_MSFontService,sans-serif" font-style="normal" font-variant="normal" font-weight="700" font-stretch="normal" font-size="28" text-anchor="start" direction="ltr" writing-mode="lr-tb" unicode-bidi="normal" text-decoration="none" transform="matrix(1.20486 0 0 1.20134 588.268 301)">Skills</text><g clip-path="url(#clip5)"><text fill="#262626" fill-opacity="1" font-family="Arial,Arial_MSFontService,sans-serif" font-style="normal" font-variant="normal" font-weight="400" font-stretch="normal" font-size="12" text-anchor="start" direction="ltr" writing-mode="lr-tb" unicode-bidi="normal" text-decoration="none" transform="matrix(1.20486 0 0 1.20134 283.839 341)">Agile Project </text></g><text fill="#262626" fill-opacity="1" font-family="Arial,Arial_MSFontService,sans-serif" font-style="normal" font-variant="normal" font-weight="400" font-stretch="normal" font-size="12" text-anchor="start" direction="ltr" writing-mode="lr-tb" unicode-bidi="normal" text-decoration="none" transform="matrix(1.20486 0 0 1.20134 282.26 357)">Management<tspan fill="#262626" fill-opacity="1" font-family="Arial,Arial_MSFontService,sans-serif" font-style="normal" font-variant="normal" font-weight="400" font-stretch="normal" font-size="12" text-anchor="start" direction="ltr" writing-mode="lr-tb" unicode-bidi="normal" text-decoration="none" x="93.8467" y="-13.3184">Academic </tspan><tspan fill="#262626" fill-opacity="1" font-family="Arial,Arial_MSFontService,sans-serif" font-style="normal" font-variant="normal" font-weight="400" font-stretch="normal" font-size="12" text-anchor="start" direction="ltr" writing-mode="lr-tb" unicode-bidi="normal" text-decoration="none" x="101.577" y="0">Writing</tspan><tspan fill="#262626" fill-opacity="1" font-family="Arial,Arial_MSFontService,sans-serif" font-style="normal" font-variant="normal" font-weight="400" font-stretch="normal" font-size="12" text-anchor="start" direction="ltr" writing-mode="lr-tb" unicode-bidi="normal" text-decoration="none" x="181.693" y="-20.8101">Software </tspan><tspan fill="#262626" fill-opacity="1" font-family="Arial,Arial_MSFontService,sans-serif" font-style="normal" font-variant="normal" font-weight="400" font-stretch="normal" font-size="12" text-anchor="start" direction="ltr" writing-mode="lr-tb" unicode-bidi="normal" text-decoration="none" x="186.753" y="-6.65922">Design </tspan><tspan fill="#262626" fill-opacity="1" font-family="Arial,Arial_MSFontService,sans-serif" font-style="normal" font-variant="normal" font-weight="400" font-stretch="normal" font-size="12" text-anchor="start" direction="ltr" writing-mode="lr-tb" unicode-bidi="normal" text-decoration="none" x="188.693" y="7.49162">(UML)</tspan><tspan fill="#262626" fill-opacity="1" font-family="Arial,Arial_MSFontService,sans-serif" font-style="normal" font-variant="normal" font-weight="400" font-stretch="normal" font-size="12" text-anchor="start" direction="ltr" writing-mode="lr-tb" unicode-bidi="normal" text-decoration="none" x="278.763" y="-13.3184">SQL </tspan><tspan fill="#262626" fill-opacity="1" font-family="Arial,Arial_MSFontService,sans-serif" font-style="normal" font-variant="normal" font-weight="400" font-stretch="normal" font-size="12" text-anchor="start" direction="ltr" writing-mode="lr-tb" unicode-bidi="normal" text-decoration="none" x="261.978" y="0">Databases</tspan><tspan fill="#262626" fill-opacity="1" font-family="Arial,Arial_MSFontService,sans-serif" font-style="normal" font-variant="normal" font-weight="400" font-stretch="normal" font-size="12" text-anchor="start" direction="ltr" writing-mode="lr-tb" unicode-bidi="normal" text-decoration="none" x="348.512" y="-20.8101">Familiarity </tspan><tspan fill="#262626" fill-opacity="1" font-family="Arial,Arial_MSFontService,sans-serif" font-style="normal" font-variant="normal" font-weight="400" font-stretch="normal" font-size="12" text-anchor="start" direction="ltr" writing-mode="lr-tb" unicode-bidi="normal" text-decoration="none" x="344.047" y="-6.65922">with NoSQL </tspan><tspan fill="#262626" fill-opacity="1" font-family="Arial,Arial_MSFontService,sans-serif" font-style="normal" font-variant="normal" font-weight="400" font-stretch="normal" font-size="12" text-anchor="start" direction="ltr" writing-mode="lr-tb" unicode-bidi="normal" text-decoration="none" x="347.197" y="7.49162">Databases</tspan><tspan fill="#262626" fill-opacity="1" font-family="Arial,Arial_MSFontService,sans-serif" font-style="normal" font-variant="normal" font-weight="400" font-stretch="normal" font-size="12" text-anchor="start" direction="ltr" writing-mode="lr-tb" unicode-bidi="normal" text-decoration="none" x="427.296" y="-6.65922">Python OOP</tspan><tspan fill="#262626" fill-opacity="1" font-family="Arial,Arial_MSFontService,sans-serif" font-style="normal" font-variant="normal" font-weight="400" font-stretch="normal" font-size="12" text-anchor="start" direction="ltr" writing-mode="lr-tb" unicode-bidi="normal" text-decoration="none" x="511.08" y="-6.65922">Collaboration</tspan></text><g clip-path="url(#clip6)"><text fill="#262626" fill-opacity="1" font-family="Arial,Arial_MSFontService,sans-serif" font-style="normal" font-variant="normal" font-weight="400" font-stretch="normal" font-size="16" text-anchor="start" direction="ltr" writing-mode="lr-tb" unicode-bidi="normal" text-decoration="none" transform="matrix(1.20486 0 0 1.20134 57.0633 402)">Before OOIS module</text></g><g clip-path="url(#clip7)"><text fill="#262626" fill-opacity="1" font-family="Arial,Arial_MSFontService,sans-serif" font-style="normal" font-variant="normal" font-weight="400" font-stretch="normal" font-size="16" text-anchor="start" direction="ltr" writing-mode="lr-tb" unicode-bidi="normal" text-decoration="none" transform="matrix(1.20486 0 0 1.20134 57.0633 441)">After OOIS module</text></g><path d="M974.889 184.406C974.889 176.445 981.075 169.99 988.705 169.99 996.334 169.99 1002.52 176.445 1002.52 184.406 1002.52 192.367 996.334 198.822 988.705 198.822 981.075 198.822 974.889 192.367 974.889 184.406Z" stroke="#44546A" stroke-width="1.20134" stroke-linecap="butt" stroke-linejoin="miter" stroke-miterlimit="8" stroke-opacity="1" fill="#F2F2F2" fill-rule="evenodd" fill-opacity="1" transform="matrix(1.00293 0 0 1 34.9514 18.6107)"/><text fill="#262626" fill-opacity="1" font-family="Arial,Arial_MSFontService,sans-serif" font-style="normal" font-variant="normal" font-weight="700" font-stretch="normal" font-size="12" text-anchor="start" direction="ltr" writing-mode="lr-tb" unicode-bidi="normal" text-decoration="none" transform="matrix(1.20486 0 0 1.20134 1048.43 208)">No Competence</text><path d="M974.889 265.497C974.889 257.867 981.075 251.681 988.705 251.681 996.334 251.681 1002.52 257.867 1002.52 265.497 1002.52 273.126 996.334 279.312 988.705 279.312 981.075 279.312 974.889 273.126 974.889 265.497Z" stroke="#44546A" stroke-width="1.20134" stroke-linecap="butt" stroke-linejoin="miter" stroke-miterlimit="8" stroke-opacity="1" fill="#F2F2F2" fill-rule="evenodd" fill-opacity="1" transform="matrix(1.00293 0 0 1 34.9514 18.6107)"/><path d="M988.104 251.081C995.731 251.081 1001.92 257.261 1001.92 264.889L988.104 264.896Z" fill="#44546A" fill-rule="evenodd" fill-opacity="1" transform="matrix(1.00293 0 0 1 34.9514 18.6107)"/><text fill="#262626" fill-opacity="1" font-family="Arial,Arial_MSFontService,sans-serif" font-style="normal" font-variant="normal" font-weight="700" font-stretch="normal" font-size="12" text-anchor="start" direction="ltr" writing-mode="lr-tb" unicode-bidi="normal" text-decoration="none" transform="matrix(1.20486 0 0 1.20134 1048.43 289)">Low Competence</text><path d="M974.889 346.587C974.889 338.626 981.075 332.171 988.705 332.171 996.334 332.171 1002.52 338.626 1002.52 346.587 1002.52 354.549 996.334 361.003 988.705 361.003 981.075 361.003 974.889 354.549 974.889 346.587Z" stroke="#44546A" stroke-width="1.20134" stroke-linecap="butt" stroke-linejoin="miter" stroke-miterlimit="8" stroke-opacity="1" fill="#F2F2F2" fill-rule="evenodd" fill-opacity="1" transform="matrix(1.00293 0 0 1 34.9514 18.6107)"/><path d="M988.104 331.57C995.734 331.57 1001.92 338.025 1001.92 345.987 1001.92 353.931 995.759 360.379 988.146 360.403L988.104 345.987Z" fill="#44546A" fill-rule="evenodd" fill-opacity="1" transform="matrix(1.00293 0 0 1 34.9514 18.6107)"/><text fill="#262626" fill-opacity="1" font-family="Arial,Arial_MSFontService,sans-serif" font-style="normal" font-variant="normal" font-weight="700" font-stretch="normal" font-size="12" text-anchor="start" direction="ltr" writing-mode="lr-tb" unicode-bidi="normal" text-decoration="none" transform="matrix(1.20486 0 0 1.20134 1048.43 371)">Some Competence</text><path d="M974.889 428.279C974.889 420.317 981.075 413.862 988.705 413.862 996.334 413.862 1002.52 420.317 1002.52 428.279 1002.52 436.24 996.334 442.695 988.705 442.695 981.075 442.695 974.889 436.24 974.889 428.279Z" stroke="#44546A" stroke-width="1.20134" stroke-linecap="butt" stroke-linejoin="miter" stroke-miterlimit="8" stroke-opacity="1" fill="#F2F2F2" fill-rule="evenodd" fill-opacity="1" transform="matrix(1.00293 0 0 1 34.9514 18.6107)"/><path d="M988.104 413.262C995.734 413.262 1001.92 419.717 1001.92 427.678 1001.92 435.639 995.734 442.094 988.104 442.094 980.489 442.094 974.309 435.663 974.289 427.716L988.104 427.678Z" fill="#44546A" fill-rule="evenodd" fill-opacity="1" transform="matrix(1.00293 0 0 1 34.9514 18.6107)"/><text fill="#262626" fill-opacity="1" font-family="Arial,Arial_MSFontService,sans-serif" font-style="normal" font-variant="normal" font-weight="700" font-stretch="normal" font-size="12" text-anchor="start" direction="ltr" writing-mode="lr-tb" unicode-bidi="normal" text-decoration="none" transform="matrix(1.20486 0 0 1.20134 1048.43 451)">High Competence</text><path d="M974.889 508.768C974.889 500.807 981.075 494.352 988.705 494.352 996.334 494.352 1002.52 500.807 1002.52 508.768 1002.52 516.73 996.334 523.185 988.705 523.185 981.075 523.185 974.889 516.73 974.889 508.768Z" stroke="#D9D9D9" stroke-width="1.20134" stroke-linecap="butt" stroke-linejoin="miter" stroke-miterlimit="8" stroke-opacity="1" fill="#F2F2F2" fill-rule="evenodd" fill-opacity="1" transform="matrix(1.00293 0 0 1 34.9514 18.6107)"/><path d="M988.705 523.185C981.075 523.185 974.889 516.73 974.889 508.768 974.889 500.807 981.075 494.352 988.705 494.352 996.334 494.352 1002.52 500.807 1002.52 508.768 1002.52 516.73 996.334 523.185 988.705 523.185Z" stroke="#44546A" stroke-width="1.20134" stroke-linecap="butt" stroke-linejoin="miter" stroke-miterlimit="8" stroke-opacity="1" fill="#44546A" fill-rule="evenodd" fill-opacity="1" transform="matrix(1.00293 0 0 1 34.9514 18.6107)"/><text fill="#262626" fill-opacity="1" font-family="Arial,Arial_MSFontService,sans-serif" font-style="normal" font-variant="normal" font-weight="700" font-stretch="normal" font-size="12" text-anchor="start" direction="ltr" writing-mode="lr-tb" unicode-bidi="normal" text-decoration="none" transform="matrix(1.20486 0 0 1.20134 1048.43 533)">Expert</text><path d="M273.305 376.02C273.305 368.39 279.491 362.205 287.121 362.205 294.751 362.205 300.936 368.39 300.936 376.02 300.936 383.65 294.751 389.836 287.121 389.836 279.491 389.836 273.305 383.65 273.305 376.02Z" stroke="#44546A" stroke-width="1.20134" stroke-linecap="butt" stroke-linejoin="miter" stroke-miterlimit="8" stroke-opacity="1" fill="#F2F2F2" fill-rule="evenodd" fill-opacity="1" transform="matrix(1.00293 0 0 1 34.9514 18.6107)"/><path d="M286.52 361.604C294.15 361.604 300.336 367.79 300.336 375.419 300.336 383.049 294.15 389.235 286.52 389.235 278.89 389.235 272.705 383.049 272.705 375.419 272.705 375.382 272.705 375.345 272.705 375.307L286.52 375.419Z" fill="#44546A" fill-rule="evenodd" fill-opacity="1" transform="matrix(1.00293 0 0 1 34.9514 18.6107)"/><path d="M273.305 416.265C273.305 408.967 279.491 403.05 287.121 403.05 294.751 403.05 300.936 408.967 300.936 416.265 300.936 423.563 294.751 429.48 287.121 429.48 279.491 429.48 273.305 423.563 273.305 416.265Z" stroke="#44546A" stroke-width="1.20134" stroke-linecap="butt" stroke-linejoin="miter" stroke-miterlimit="8" stroke-opacity="1" fill="#F2F2F2" fill-rule="evenodd" fill-opacity="1" transform="matrix(1.00293 0 0 1 34.9514 18.6107)"/><path d="M286.52 402.45C294.15 402.45 300.336 408.366 300.336 415.664 300.336 422.963 294.15 428.879 286.52 428.879 278.89 428.879 272.705 422.963 272.705 415.664 272.705 415.627 272.705 415.59 272.705 415.551L286.52 415.664Z" fill="#44546A" fill-rule="evenodd" fill-opacity="1" transform="matrix(1.00293 0 0 1 34.9514 18.6107)"/><path d="M375.419 376.02C375.419 368.39 381.605 362.205 389.235 362.205 396.865 362.205 403.05 368.39 403.05 376.02 403.05 383.65 396.865 389.836 389.235 389.836 381.605 389.836 375.419 383.65 375.419 376.02Z" stroke="#44546A" stroke-width="1.20134" stroke-linecap="butt" stroke-linejoin="miter" stroke-miterlimit="8" stroke-opacity="1" fill="#F2F2F2" fill-rule="evenodd" fill-opacity="1" transform="matrix(1.00293 0 0 1 34.9514 18.6107)"/><path d="M388.634 361.604C396.264 361.604 402.45 367.79 402.45 375.419 402.45 383.049 396.264 389.235 388.634 389.235 381.004 389.235 374.819 383.049 374.819 375.419 374.819 375.382 374.819 375.345 374.819 375.307L388.634 375.419Z" fill="#44546A" fill-rule="evenodd" fill-opacity="1" transform="matrix(1.00293 0 0 1 34.9514 18.6107)"/><path d="M375.419 416.265C375.419 408.967 381.605 403.05 389.235 403.05 396.865 403.05 403.05 408.967 403.05 416.265 403.05 423.563 396.865 429.48 389.235 429.48 381.605 429.48 375.419 423.563 375.419 416.265Z" stroke="#44546A" stroke-width="1.20134" stroke-linecap="butt" stroke-linejoin="miter" stroke-miterlimit="8" stroke-opacity="1" fill="#F2F2F2" fill-rule="evenodd" fill-opacity="1" transform="matrix(1.00293 0 0 1 34.9514 18.6107)"/><path d="M388.634 402.45C396.264 402.45 402.45 408.366 402.45 415.664 402.45 422.963 396.264 428.879 388.634 428.879 381.004 428.879 374.819 422.963 374.819 415.664 374.819 415.627 374.819 415.59 374.819 415.551L388.634 415.664Z" fill="#44546A" fill-rule="evenodd" fill-opacity="1" transform="matrix(1.00293 0 0 1 34.9514 18.6107)"/><path d="M477.534 416.265C477.534 408.967 483.45 403.05 490.748 403.05 498.046 403.05 503.963 408.967 503.963 416.265 503.963 423.563 498.046 429.48 490.748 429.48 483.45 429.48 477.534 423.563 477.534 416.265Z" stroke="#44546A" stroke-width="1.20134" stroke-linecap="butt" stroke-linejoin="miter" stroke-miterlimit="8" stroke-opacity="1" fill="#F2F2F2" fill-rule="evenodd" fill-opacity="1" transform="matrix(1.00293 0 0 1 34.9514 18.6107)"/><path d="M490.148 402.45C497.446 402.45 503.362 408.366 503.362 415.664 503.362 422.963 497.446 428.879 490.148 428.879 482.849 428.879 476.933 422.963 476.933 415.664 476.933 415.628 476.933 415.592 476.933 415.556L490.148 415.664Z" fill="#44546A" fill-rule="evenodd" fill-opacity="1" transform="matrix(1.00293 0 0 1 34.9514 18.6107)"/><path d="M477.534 374.819C477.534 367.189 483.45 361.003 490.748 361.003 498.046 361.003 503.963 367.189 503.963 374.819 503.963 382.449 498.046 388.634 490.748 388.634 483.45 388.634 477.534 382.449 477.534 374.819Z" stroke="#44546A" stroke-width="1.20134" stroke-linecap="butt" stroke-linejoin="miter" stroke-miterlimit="8" stroke-opacity="1" fill="#F2F2F2" fill-rule="evenodd" fill-opacity="1" transform="matrix(1.00293 0 0 1 34.9514 18.6107)"/><path d="M490.148 360.403C497.443 360.403 503.359 366.584 503.362 374.211L490.148 374.218Z" fill="#44546A" fill-rule="evenodd" fill-opacity="1" transform="matrix(1.00293 0 0 1 34.9514 18.6107)"/><path d="M684.164 376.02C684.164 368.39 690.35 362.205 697.98 362.205 705.61 362.205 711.795 368.39 711.795 376.02 711.795 383.65 705.61 389.836 697.98 389.836 690.35 389.836 684.164 383.65 684.164 376.02Z" stroke="#44546A" stroke-width="1.20134" stroke-linecap="butt" stroke-linejoin="miter" stroke-miterlimit="8" stroke-opacity="1" fill="#F2F2F2" fill-rule="evenodd" fill-opacity="1" transform="matrix(1.00293 0 0 1 34.9514 18.6107)"/><path d="M697.379 361.604C705.006 361.604 711.191 367.785 711.195 375.412L697.379 375.419Z" fill="#44546A" fill-rule="evenodd" fill-opacity="1" transform="matrix(1.00293 0 0 1 34.9514 18.6107)"/><path d="M580.849 416.265C580.849 408.967 587.035 403.05 594.664 403.05 602.294 403.05 608.48 408.967 608.48 416.265 608.48 423.563 602.294 429.48 594.664 429.48 587.035 429.48 580.849 423.563 580.849 416.265Z" stroke="#44546A" stroke-width="1.20134" stroke-linecap="butt" stroke-linejoin="miter" stroke-miterlimit="8" stroke-opacity="1" fill="#F2F2F2" fill-rule="evenodd" fill-opacity="1" transform="matrix(1.00293 0 0 1 34.9514 18.6107)"/><path d="M594.064 402.45C601.693 402.45 607.879 408.366 607.879 415.664 607.879 422.963 601.693 428.879 594.064 428.879 586.434 428.879 580.248 422.963 580.248 415.664 580.248 415.627 580.248 415.59 580.248 415.551L594.064 415.664Z" fill="#44546A" fill-rule="evenodd" fill-opacity="1" transform="matrix(1.00293 0 0 1 34.9514 18.6107)"/><path d="M582.05 376.02C582.05 368.39 588.236 362.205 595.866 362.205 603.495 362.205 609.681 368.39 609.681 376.02 609.681 383.65 603.495 389.836 595.866 389.836 588.236 389.836 582.05 383.65 582.05 376.02Z" stroke="#44546A" stroke-width="1.20134" stroke-linecap="butt" stroke-linejoin="miter" stroke-miterlimit="8" stroke-opacity="1" fill="#F2F2F2" fill-rule="evenodd" fill-opacity="1" transform="matrix(1.00293 0 0 1 34.9514 18.6107)"/><path d="M595.265 361.604C602.895 361.604 609.081 367.79 609.081 375.419 609.081 383.028 602.928 389.205 595.319 389.235L595.265 375.419Z" fill="#44546A" fill-rule="evenodd" fill-opacity="1" transform="matrix(1.00293 0 0 1 34.9514 18.6107)"/><path d="M684.164 416.265C684.164 408.967 690.35 403.05 697.98 403.05 705.61 403.05 711.795 408.967 711.795 416.265 711.795 423.563 705.61 429.48 697.98 429.48 690.35 429.48 684.164 423.563 684.164 416.265Z" stroke="#44546A" stroke-width="1.20134" stroke-linecap="butt" stroke-linejoin="miter" stroke-miterlimit="8" stroke-opacity="1" fill="#F2F2F2" fill-rule="evenodd" fill-opacity="1" transform="matrix(1.00293 0 0 1 34.9514 18.6107)"/><path d="M697.379 402.45C705.009 402.45 711.195 408.366 711.195 415.664 711.195 422.943 705.041 428.852 697.432 428.879L697.379 415.664Z" fill="#44546A" fill-rule="evenodd" fill-opacity="1" transform="matrix(1.00293 0 0 1 34.9514 18.6107)"/><path d="M787.48 374.819C787.48 367.189 793.396 361.003 800.695 361.003 807.993 361.003 813.909 367.189 813.909 374.819 813.909 382.449 807.993 388.634 800.695 388.634 793.396 388.634 787.48 382.449 787.48 374.819Z" stroke="#44546A" stroke-width="1.20134" stroke-linecap="butt" stroke-linejoin="miter" stroke-miterlimit="8" stroke-opacity="1" fill="#F2F2F2" fill-rule="evenodd" fill-opacity="1" transform="matrix(1.00293 0 0 1 34.9514 18.6107)"/><path d="M800.094 360.403C807.392 360.403 813.309 366.588 813.309 374.218 813.309 381.826 807.426 388.002 800.149 388.034L800.094 374.218Z" fill="#44546A" fill-rule="evenodd" fill-opacity="1" transform="matrix(1.00293 0 0 1 34.9514 18.6107)"/><path d="M786.279 416.265C786.279 408.967 792.464 403.05 800.094 403.05 807.724 403.05 813.909 408.967 813.909 416.265 813.909 423.563 807.724 429.48 800.094 429.48 792.464 429.48 786.279 423.563 786.279 416.265Z" stroke="#44546A" stroke-width="1.20134" stroke-linecap="butt" stroke-linejoin="miter" stroke-miterlimit="8" stroke-opacity="1" fill="#F2F2F2" fill-rule="evenodd" fill-opacity="1" transform="matrix(1.00293 0 0 1 34.9514 18.6107)"/><path d="M799.493 402.45C807.123 402.45 813.309 408.366 813.309 415.664 813.309 422.963 807.123 428.879 799.493 428.879 791.864 428.879 785.678 422.963 785.678 415.664 785.678 415.627 785.678 415.59 785.678 415.551L799.493 415.664Z" fill="#44546A" fill-rule="evenodd" fill-opacity="1" transform="matrix(1.00293 0 0 1 34.9514 18.6107)"/><path d="M889.594 374.819C889.594 367.189 895.78 361.003 903.409 361.003 911.039 361.003 917.225 367.189 917.225 374.819 917.225 382.449 911.039 388.634 903.409 388.634 895.78 388.634 889.594 382.449 889.594 374.819Z" stroke="#44546A" stroke-width="1.20134" stroke-linecap="butt" stroke-linejoin="miter" stroke-miterlimit="8" stroke-opacity="1" fill="#F2F2F2" fill-rule="evenodd" fill-opacity="1" transform="matrix(1.00293 0 0 1 34.9514 18.6107)"/><path d="M902.809 360.403C910.438 360.403 916.624 366.588 916.624 374.218 916.624 381.848 910.438 388.034 902.809 388.034 895.179 388.034 888.993 381.848 888.993 374.218 888.993 374.181 888.993 374.144 888.993 374.105L902.809 374.218Z" fill="#44546A" fill-rule="evenodd" fill-opacity="1" transform="matrix(1.00293 0 0 1 34.9514 18.6107)"/><path d="M889.594 416.265C889.594 408.967 895.78 403.05 903.409 403.05 911.039 403.05 917.225 408.967 917.225 416.265 917.225 423.563 911.039 429.48 903.409 429.48 895.78 429.48 889.594 423.563 889.594 416.265Z" stroke="#44546A" stroke-width="1.20134" stroke-linecap="butt" stroke-linejoin="miter" stroke-miterlimit="8" stroke-opacity="1" fill="#F2F2F2" fill-rule="evenodd" fill-opacity="1" transform="matrix(1.00293 0 0 1 34.9514 18.6107)"/><path d="M902.809 402.45C910.438 402.45 916.624 408.366 916.624 415.664 916.624 422.963 910.438 428.879 902.809 428.879 895.179 428.879 888.993 422.963 888.993 415.664 888.993 415.627 888.993 415.59 888.993 415.551L902.809 415.664Z" fill="#44546A" fill-rule="evenodd" fill-opacity="1" transform="matrix(1.00293 0 0 1 34.9514 18.6107)"/></g></g></g></g></g></svg>